<svg height='100px' width='100px'  fill="#000000" xmlns="http://www.w3.org/2000/svg" xmlns:xlink="http://www.w3.org/1999/xlink" version="1.1" x="0px" y="0px" viewBox="0 0 100 100" enable-background="new 0 0 100 100" xml:space="preserve"><path stroke="#000000" stroke-miterlimit="10" d="M75.814,93.955H32.947l0.215-1.797c0.059-0.598,1.271-14.893-20.195-22.805  l-9.59-3.535l10.211,0.416c0.089,0.003,8.02,0.379,16.023,4.09c-3.117-6.661-7.694-12.029-13.641-15.988l-5.079-3.383l6.087,0.439  c0.382,0.023,8.443,0.692,16.102,7.998c-3.052-10.566-7.605-19.045-13.564-25.255l-3.084-3.212l4.428,0.501  c0.46,0.051,10.363,1.368,18.379,16.573c-0.633-14.812,0.256-26.715,2.651-35.436L43.976,5l5.933,43.207l4.1-29.871l2.081,7.56  c2.129,7.745,2.791,18.508,1.979,32.047c4.201-6.771,8.981-10.598,12.51-12.694c5.261-3.123,9.405-3.499,9.579-3.511l5.466-0.457  l-4.355,3.335c-4.568,3.505-8.414,7.912-11.471,13.148c5.332-4.126,10.105-4.562,10.363-4.586l5.525-0.453l-4.427,3.343  c-7.188,5.42-11.003,12.97-13.021,19.66c7.735-8.995,19.155-9.703,19.287-9.711l8.091-0.425L88.3,69.076  c-3.72,1.776-6.825,3.997-9.272,6.631c4.422-1.782,8.293-1.982,8.509-1.991L97,73.301l-8.795,3.517  c-13.376,5.351-12.624,14.958-12.588,15.361L75.814,93.955z M35.321,91.812h38.144c0.006-2.209,0.756-10.092,10.602-15.427  c-2.287,0.505-5.356,1.489-8.217,3.392l-4.102,2.723l2.594-4.183c2.396-3.857,5.796-7.091,10.137-9.644  c-4.592,1.046-13.077,4.129-17.723,13.056l-3.302,6.348l1.296-7.037c1.396-7.571,4.872-17.896,13.492-25.299  c-2.595,0.739-7.202,2.723-11.495,8.007l-4.911,6.042l3.093-7.146c3.219-7.43,7.703-13.597,13.353-18.374  c-1.565,0.406-3.903,1.218-6.608,2.824c-3.968,2.353-9.623,7.058-14.06,16.098l-2.489,5.084l0.46-5.645  c1.141-13.973,0.836-25.193-0.902-33.421l-4.773,34.77l-6.613-48.154c-2.081,9.342-2.624,21.956-1.615,37.562l0.418,6.467  l-2.481-5.985c-6.079-14.675-13.948-18.783-17.34-19.906c6.372,7.177,11.073,16.95,13.99,29.086l1.104,4.609l-2.985-3.685  c-5.583-6.891-11.96-9.253-15.286-10.05c6.126,4.61,10.719,10.764,13.668,18.326l1.099,2.815l-2.627-1.496  c-4.999-2.836-10.357-4.139-13.863-4.723C34.512,76.657,35.366,88.972,35.321,91.812z"></path></svg>