<svg height='100px' width='100px'  fill="#000000" xmlns="http://www.w3.org/2000/svg" xmlns:xlink="http://www.w3.org/1999/xlink" version="1.1" x="0px" y="0px" viewBox="0 0 100 100" enable-background="new 0 0 100 100" xml:space="preserve"><path d="M78.553,54.197c-9.074,0-16.429,7.354-16.429,16.429s7.354,16.429,16.429,16.429c9.073,0,16.429-7.354,16.429-16.429  S87.626,54.197,78.553,54.197z M78.553,84.055c-7.405,0-13.429-6.024-13.429-13.429s6.023-13.429,13.429-13.429  c7.404,0,13.429,6.024,13.429,13.429S85.957,84.055,78.553,84.055z"></path><path d="M78.553,64.197c-3.551,0-6.429,2.878-6.429,6.429s2.878,6.429,6.429,6.429s6.429-2.878,6.429-6.429  S82.104,64.197,78.553,64.197z M78.553,74.055c-1.891,0-3.429-1.538-3.429-3.429s1.538-3.429,3.429-3.429  c1.89,0,3.429,1.538,3.429,3.429S80.442,74.055,78.553,74.055z"></path><path d="M59.869,79.03l-4.32,4.771l-4.321-4.771c-0.568-0.628-1.654-0.628-2.224,0l-4.317,4.771l-4.313-4.77  c-0.284-0.314-0.688-0.494-1.112-0.494s-0.828,0.18-1.112,0.494l-4.314,4.77l-4.313-4.77c-0.285-0.314-0.688-0.494-1.113-0.494  c-0.424,0-0.828,0.18-1.112,0.494l-4.314,4.77l-4.313-4.77c-0.568-0.629-1.656-0.629-2.225,0L12.134,83.8l-4.309-4.769  c-0.555-0.614-1.504-0.662-2.119-0.107c-0.614,0.556-0.663,1.504-0.107,2.119l5.422,6c0.284,0.314,0.688,0.494,1.113,0.494  c0.424,0,0.828-0.18,1.113-0.494l4.311-4.77l4.313,4.77c0.285,0.314,0.688,0.494,1.113,0.494c0.424,0,0.828-0.18,1.112-0.494  l4.314-4.77l4.313,4.77c0.284,0.314,0.688,0.494,1.112,0.494s0.828-0.18,1.112-0.494l4.314-4.77l4.312,4.77  c0.285,0.314,0.689,0.494,1.113,0.494l0,0c0.424,0,0.828-0.18,1.112-0.493l4.317-4.771l4.32,4.771  c0.285,0.314,0.688,0.493,1.112,0.493s0.827-0.179,1.112-0.493l5.432-6c0.557-0.614,0.509-1.563-0.105-2.119  C61.374,78.369,60.425,78.417,59.869,79.03z"></path><path d="M18.727,24.414c1.91-1.241,4.331-1.315,6.317-0.19c0.721,0.41,1.636,0.156,2.044-0.565c0.408-0.721,0.155-1.636-0.566-2.044  c-2.965-1.68-6.579-1.57-9.432,0.285c-2.932,1.908-4.484,5.255-4.05,8.733c0.095,0.759,0.741,1.314,1.486,1.314  c0.062,0,0.125-0.004,0.188-0.012c0.822-0.103,1.405-0.852,1.303-1.674C15.727,27.932,16.765,25.69,18.727,24.414z"></path><path d="M6.446,30.24c0.025,0.001,0.049,0.002,0.074,0.002c0.795,0,1.458-0.625,1.497-1.427c0.219-4.492,2.594-8.637,6.354-11.086  c3.772-2.456,8.355-2.962,12.575-1.386c0.777,0.289,1.641-0.104,1.93-0.881s-0.104-1.64-0.88-1.93  c-5.046-1.884-10.751-1.255-15.262,1.683c-4.564,2.973-7.447,8.003-7.712,13.453C4.98,29.497,5.619,30.2,6.446,30.24z"></path><path d="M25.214,27.515c-0.387-0.082-0.772-0.122-1.152-0.122c-2.541,0-4.825,1.77-5.374,4.357  c-0.195,0.916-0.148,1.826,0.095,2.667c-7.651,4.016-13.302,10.495-13.302,16.62v13c0,2.848,1.504,5.1,3.499,5.433v0.067h0.501  h2.216c0.21,0.474,0.52,1.289,0.842,2.421c0.736,2.577,3.565,4.597,6.442,4.597l38.365,0.008c0.001,0,0.001,0,0.001,0  c0.446,0,0.868-0.198,1.153-0.541s0.402-0.795,0.321-1.233c-0.227-1.22-0.341-2.472-0.341-3.723c0-11.162,9.08-20.243,20.242-20.243  c4.656,0,9.033,1.537,12.657,4.444c0,0,0.658,0.431,1.075,0.431c0.828,0,1.5-0.672,1.5-1.5c0-0.533-0.281-0.999-0.701-1.266  l0.004-0.005c-1.201-0.964-2.494-1.801-3.853-2.503L87.03,33.785c-0.418-2.931-3.064-5.264-6.025-5.31  c-0.186-0.002-18.914-0.259-49.138,2.066c-0.896,0.069-1.79,0.195-2.679,0.346C28.535,29.226,27.09,27.913,25.214,27.515z   M21.623,32.372c0.243-1.146,1.27-1.979,2.44-1.979c0.175,0,0.352,0.02,0.528,0.057c0.652,0.139,1.211,0.523,1.575,1.083  c0.364,0.56,0.487,1.229,0.349,1.882c-0.245,1.147-1.271,1.98-2.44,1.98c-0.175,0-0.352-0.019-0.525-0.056  C22.2,35.052,21.336,33.722,21.623,32.372z M18.982,73.555c-1.527,0-3.189-1.131-3.557-2.42c-0.175-0.613-0.341-1.137-0.501-1.598  h40.613c-0.032,0.506-0.055,1.015-0.055,1.528c0,0.834,0.044,1.669,0.133,2.497L18.982,73.555z M79.044,31.466  c1.229,0,1.881,0.009,1.914,0.01c1.475,0.022,2.895,1.274,3.104,2.733l2.119,14.846c-2.389-0.81-4.91-1.232-7.457-1.232  c-4.625,0-8.936,1.363-12.561,3.702c-11.514-0.131-22.197-7.268-27.834-18.446C59.511,31.615,74.046,31.466,79.044,31.466z   M32.097,33.532c1.024-0.079,2.029-0.153,3.027-0.227c5.44,11.67,15.889,19.547,27.548,20.974c-3.386,3.24-5.799,7.486-6.745,12.258  H12.482h-3c-0.249,0-1-0.887-1-2.5v-13c0-4.604,4.93-10.405,11.912-14.057c0.694,0.625,1.552,1.085,2.531,1.293  c0.386,0.082,0.771,0.121,1.15,0.121c2.542,0,4.824-1.771,5.374-4.356c0.011-0.054,0.016-0.106,0.025-0.159  C30.34,33.727,31.213,33.601,32.097,33.532z"></path></svg>