<?xml version="1.0" encoding="UTF-8"?>
<svg width="1200pt" height="1200pt" version="1.1" viewBox="0 0 1200 1200" xmlns="http://www.w3.org/2000/svg">
 <path d="m866.7 242.53c6.832 0 13.383 2.7109 18.211 7.543 4.832 4.8281 7.543 11.383 7.543 18.211 0 6.832-2.7109 13.383-7.543 18.215-4.8281 4.8281-11.379 7.543-18.211 7.543s-13.383-2.7148-18.211-7.543c-4.832-4.832-7.543-11.383-7.543-18.215 0-6.8281 2.7148-13.379 7.5469-18.207 4.8281-4.8281 11.379-7.543 18.207-7.5469zm0 87.031c16.254 0 31.844-6.457 43.34-17.953 11.492-11.496 17.949-27.086 17.949-43.34s-6.4609-31.844-17.957-43.34c-11.496-11.492-27.086-17.945-43.34-17.945-16.258 0.003906-31.844 6.4609-43.336 17.961-11.492 11.496-17.949 27.086-17.945 43.34 0.019532 16.25 6.4844 31.824 17.973 43.312 11.492 11.488 27.07 17.949 43.316 17.965zm-108.73-64.637v6.707l10.723 1.4922h0.003906c3.5938 0.49219 6.9492 2.0742 9.6172 4.5312 2.6719 2.457 4.5234 5.6719 5.3125 9.2109 2.1328 9.5859 5.9141 18.727 11.18 27.02 1.9453 3.0469 2.9102 6.6211 2.7656 10.234-0.14844 3.6133-1.3984 7.0938-3.5859 9.9766l-6.543 8.6523 4.7383 4.75 8.6641-6.4453c2.8867-2.1719 6.3633-3.4141 9.9766-3.5625 3.6094-0.14453 7.1797 0.8125 10.23 2.7422 8.2656 5.293 17.402 9.0859 26.984 11.207 3.5469 0.76953 6.7773 2.6055 9.25 5.2656s4.0703 6.0156 4.582 9.6133l1.4922 10.762h6.6953l1.5234-10.762c0.48828-3.5938 2.0664-6.9531 4.5234-9.6172 2.4609-2.668 5.6797-4.5117 9.2188-5.2891 9.5898-2.1211 18.727-5.9141 26.996-11.203 3.0508-1.9336 6.6211-2.8906 10.234-2.7461 3.6094 0.14844 7.0898 1.3906 9.9766 3.5664l8.7031 6.5703 4.75-4.75-6.543-8.6523c-2.2031-2.8867-3.4648-6.3789-3.6172-10.008-0.14844-3.625 0.82422-7.2109 2.7812-10.266 5.2617-8.2891 9.0469-17.426 11.18-27.008 0.78906-3.5352 2.6367-6.7422 5.3008-9.1992 2.6602-2.4531 6.0078-4.0391 9.5898-4.543l10.762-1.4922v-6.707l-10.711-1.4766c-3.5938-0.49609-6.9531-2.0781-9.625-4.5391-2.6719-2.457-4.5273-5.6758-5.3164-9.2188-2.1367-9.5859-5.918-18.727-11.18-27.02-1.9453-3.0469-2.9062-6.6211-2.7578-10.234s1.4023-7.0938 3.5938-9.9766l6.543-8.6641-4.75-4.75-8.7031 6.582c-2.8867 2.1719-6.3672 3.418-9.9766 3.5625-3.6133 0.14844-7.1836-0.80859-10.234-2.7422-8.2695-5.293-17.406-9.0898-26.996-11.215-3.5469-0.77734-6.7695-2.6289-9.2266-5.3047-2.4609-2.6719-4.0352-6.0391-4.5156-9.6406l-1.5039-10.773h-6.6953l-1.4922 10.773h0.003906c-0.5 3.5898-2.0859 6.9414-4.543 9.6016-2.4609 2.6641-5.6758 4.5078-9.2148 5.293-9.582 2.125-18.715 5.9219-26.98 11.215-3.0547 1.9297-6.6211 2.8828-10.23 2.7383-3.6094-0.14844-7.0898-1.3867-9.9805-3.5586l-8.7031-6.582-4.7383 4.75 6.543 8.6641h0.003906c2.1992 2.8789 3.457 6.3594 3.6055 9.9766 0.14453 3.6172-0.82812 7.1914-2.7852 10.234-5.2812 8.2852-9.0625 17.43-11.18 27.02-0.78516 3.543-2.6367 6.7617-5.3086 9.2188-2.668 2.4609-6.0273 4.043-9.6211 4.5391l-10.723 1.4766zm0.66797 57.043-8.8438 11.723h0.003906c-2.5938 3.4219-3.8633 7.6641-3.5664 11.949 0.29688 4.2812 2.1328 8.3125 5.1719 11.344l26.613 26.629c3.0352 3.0312 7.0625 4.8633 11.344 5.1562 4.2773 0.28906 8.5195-0.97656 11.938-3.5664l11.695-8.8438v0.003906c4.9531 2.4492 10.062 4.5586 15.297 6.3125l2.0078 14.562 0.003906 0.003906c0.58203 4.2461 2.6836 8.1406 5.9141 10.961 3.2266 2.8203 7.3672 4.3789 11.656 4.3867h37.602c4.3125 0.039062 8.4883-1.5 11.742-4.3242 3.2578-2.8242 5.3711-6.7383 5.9414-11.012l2.0234-14.512c5.2148-1.7656 10.309-3.875 15.246-6.3164l11.695 8.8438v-0.003906c3.4141 2.6094 7.6562 3.8828 11.941 3.5898 4.2812-0.29297 8.3125-2.1328 11.34-5.1797l26.629-26.629c3.0312-3.0352 4.8633-7.0664 5.1562-11.348s-0.97656-8.5234-3.5664-11.945l-8.8438-11.723v0.003906c2.4609-4.9297 4.5742-10.023 6.3164-15.25l14.578-2.0078c4.25-0.58203 8.1445-2.6875 10.953-5.9258 2.8125-3.2422 4.3516-7.3906 4.332-11.68v-37.684c0.015625-4.2852-1.5273-8.4297-4.3398-11.664-2.8086-3.2305-6.6992-5.3359-10.945-5.918l-14.578-2.0195c-1.7461-5.2266-3.8555-10.328-6.3164-15.258l8.8438-11.723c2.5938-3.418 3.8594-7.6602 3.5664-11.941-0.28906-4.2773-2.125-8.3086-5.1562-11.34l-26.629-26.629c-3.0234-3.0469-7.0547-4.8906-11.34-5.1836-4.2812-0.29688-8.5273 0.97656-11.941 3.582l-11.746 8.8438v-0.003906c-4.8984-2.457-9.9648-4.5664-15.156-6.3164l-2.0625-14.539c-0.56641-4.2734-2.6797-8.1914-5.9375-11.02-3.2539-2.8242-7.4336-4.3633-11.746-4.3242h-37.617c-4.2852 0.007812-8.4258 1.5664-11.656 4.3867-3.2266 2.8203-5.3281 6.7109-5.9141 10.957l-2.0078 14.562v0.003906c-5.2305 1.7656-10.34 3.875-15.297 6.3164l-11.695-8.8438c-3.4219-2.5898-7.6641-3.8516-11.941-3.5586-4.2773 0.29688-8.3086 2.1289-11.34 5.1641l-26.613 26.602c-3.0508 3.0234-4.8945 7.0547-5.1875 11.336-0.29688 4.2852 0.97656 8.5312 3.582 11.945l8.8438 11.723c-2.457 4.9336-4.5664 10.031-6.3164 15.258l-14.527 2.0195c-4.2578 0.56641-8.1602 2.6641-10.984 5.9023-2.8242 3.2344-4.375 7.3867-4.3633 11.68v37.656c-0.003906 4.2969 1.5508 8.4453 4.3711 11.684 2.8242 3.2383 6.7227 5.3438 10.977 5.9258l14.527 2.0078c1.7461 5.2227 3.8555 10.316 6.3164 15.246zm-98.223-48.328h0.003907c-0.12891 32.023 7.2539 63.629 21.559 92.281 14.305 28.648 35.125 53.547 60.797 72.688 20.582 15.105 32.625 39.199 32.352 64.727v10.293h183.16v-10.258c-0.29297-25.52 11.734-49.613 32.301-64.723 37.645-28.273 64.484-68.574 76.066-114.21 11.582-45.633 7.2109-93.855-12.395-136.66-19.602-42.805-53.258-77.617-95.371-98.656-42.117-21.043-90.164-27.043-136.16-17.012s-87.184 35.492-116.71 72.156c-29.531 36.668-45.637 82.332-45.637 129.41zm206.29 375.52c-26.316 0.046875-50.781-13.52-64.688-35.859h129.39c-13.918 22.332-38.383 35.895-64.699 35.859zm91.277-71.383-182.54 0.003906c-0.16797-0.023438-0.29688-0.15234-0.31641-0.31641v-28.27h183.16v28.27c-0.039062 0.16797-0.17969 0.29297-0.35156 0.31641zm-196.55 32.656c10.398 29.148 32.414 52.684 60.801 65 28.391 12.32 60.617 12.32 89.008 0 28.387-12.316 50.402-35.852 60.801-65 6.457-2.7617 11.965-7.3594 15.836-13.219 3.875-5.8594 5.9414-12.727 5.9531-19.75v-74.098c-0.24609-14.348 6.5195-27.914 18.125-36.352 40.562-30.477 70.508-72.941 85.605-121.38 15.094-48.438 14.574-100.39-1.4922-148.52s-46.859-89.977-88.027-119.63c-41.164-29.656-90.613-45.613-141.35-45.613s-100.19 15.957-141.35 45.613c-41.164 29.656-71.961 71.508-88.023 119.63-16.066 48.125-16.59 100.08-1.4922 148.52 15.094 48.438 45.043 90.902 85.602 121.38 11.613 8.4336 18.383 22.004 18.141 36.352v74.098c0.007813 7.0312 2.082 13.906 5.9648 19.766 3.8828 5.8633 9.4023 10.453 15.875 13.203zm367.76 168.09c5.7148-16.219 4.7422-34.043-2.7031-49.543-7.4414-15.5-20.746-27.402-36.977-33.078-16.23-5.6797-34.055-4.668-49.539 2.8125l-195.36 94.082c-0.35547 1.7539-0.76953 3.4844-1.2617 5.2188v-0.003906c-6.207 23.25-21.406 43.078-42.246 55.109-20.84 12.031-45.609 15.281-68.848 9.0352l-188.21-50.426c-6.1328-1.6367-10.922-6.4219-12.57-12.551-1.6445-6.1289 0.10156-12.668 4.5859-17.16 4.4844-4.4883 11.023-6.2461 17.152-4.6094l188.21 50.449c14.137 3.7227 29.168 1.707 41.824-5.6055s21.91-19.332 25.742-33.438c3.668-14.195 1.5859-29.266-5.7891-41.938s-19.453-21.922-33.609-25.742l-297.61-87.031c-5.0039-1.4336-10.383-0.5625-14.68 2.375l-191.47 111.02 127.95 234.54 50.602-30.797c14.375-8.9258 31.816-11.461 48.141-6.9961l192.27 50.602h-0.003906c16.324 4.625 33.793 2.9492 48.938-4.6992l362.53-174.59c15.492-7.4453 27.367-20.781 32.965-37.035zm-883.18 347.76-172.6-316.43 143.33-78.152 172.59 316.4-143.32 78.191zm778.51-459.56-180.48 86.934c-3.8945-15.809-11.906-30.301-23.223-42.004-11.316-11.703-25.531-20.195-41.199-24.617l-297.68-87.031c-14.332-4.1172-29.734-2.0352-42.453 5.7461l-190.65 110.55-9.3984-17.23c-2.2578-4.1367-6.0625-7.207-10.582-8.5352-4.5234-1.332-9.3828-0.80859-13.52 1.4492l-174.52 95.191c-4.1367 2.2539-7.2109 6.0586-8.5391 10.578-1.332 4.5234-0.80859 9.3867 1.4531 13.523l189.6 347.62c2.2383 4.1484 6.043 7.2266 10.566 8.5586s9.3906 0.80078 13.52-1.4727l174.53-95.191c4.1328-2.2656 7.1992-6.0742 8.5273-10.594 1.3242-4.5234 0.80078-9.3828-1.4531-13.52l-18.227-33.422 52.055-31.656c6.1133-3.9531 13.641-5.0469 20.625-3.0078l192.23 50.613h0.003906c9.0234 2.4023 18.32 3.6328 27.66 3.6641 15.863-0.058594 31.504-3.7227 45.742-10.711l362.46-174.58c32.082-15.691 53.406-47.246 56.004-82.863 2.5938-35.617-13.93-69.934-43.395-90.113-29.465-20.176-67.434-23.18-99.703-7.8828z" fill-rule="evenodd"/>
</svg>
