<svg height='100px' width='100px'  fill="#000000" xmlns="http://www.w3.org/2000/svg" data-name="Layer 1" viewBox="0 0 64 64" x="0px" y="0px"><title>area-measure-size-scale-geometric-region-square</title><path d="M3,62H31a1,1,0,0,0,1-1V35a1,1,0,0,0-1-1H3a1,1,0,0,0-1,1V61A1,1,0,0,0,3,62Zm1-2V57H30v3ZM30,46v4H4V46ZM4,44V41H30v3Zm26,8v3H4V52Zm0-16v3H4V36Z"></path><path d="M61,2H3A1,1,0,0,0,2,3V31a1,1,0,0,0,1,1H34V61a1,1,0,0,0,1,1H61a1,1,0,0,0,1-1V3A1,1,0,0,0,61,2ZM60,60H36V31a1,1,0,0,0-1-1H4V4H60Z"></path></svg>