<svg xmlns="http://www.w3.org/2000/svg" height="100" width="100" fill="#000000" viewBox="0 0 15.875 15.875" xmlns:v="https://vecta.io/nano"><path d="M6.962 1.588a.44.44 0 0 0-.357.202.62.62 0 0 0-.102.332h-1.21c-.435 0-.793.358-.793.793v10.58c0 .435.358.793.793.793h5.292a.8.8 0 0 0 .794-.793V2.914a.8.8 0 0 0-.794-.793H9.37c-.003-.12-.033-.233-.1-.332a.44.44 0 0 0-.357-.202zM5.292 2.65h5.292c.15 0 .265.113.265.264v10.58c0 .15-.114.264-.265.264H5.292c-.15 0-.264-.113-.264-.264V2.914c0-.15.113-.264.264-.264zm3.87 3.726L7.87 7.4l-.143-2.628-1.015 4.77 1.2-1.074.165 2.964z" paint-order="stroke fill markers"/></svg>