<?xml version="1.0" standalone="no"?>
<!DOCTYPE svg PUBLIC "-//W3C//DTD SVG 20010904//EN"
 "http://www.w3.org/TR/2001/REC-SVG-20010904/DTD/svg10.dtd">
<svg version="1.0" xmlns="http://www.w3.org/2000/svg"
 width="1032.000000pt" height="1031.000000pt" viewBox="0 0 1032.000000 1031.000000"
 preserveAspectRatio="xMidYMid meet">
<metadata>
Created by potrace 1.16, written by Peter Selinger 2001-2019
</metadata>
<g transform="translate(0.000000,1031.000000) scale(0.100000,-0.100000)"
fill="#000000" stroke="none">
<path d="M4825 9454 c-91 -10 -248 -35 -344 -55 l-104 -22 7 -76 c29 -347 32
-727 6 -856 -54 -270 -427 -488 -835 -490 -187 0 -282 31 -376 125 -141 141
-184 339 -177 833 l3 277 -30 -6 c-16 -3 -118 -30 -225 -60 -380 -103 -557
-168 -920 -335 -167 -77 -179 -84 -184 -113 -13 -69 -18 -444 -7 -544 44 -405
196 -709 429 -860 l61 -39 -36 -34 c-64 -62 -190 -239 -247 -348 -99 -191
-169 -393 -245 -712 -87 -362 -143 -686 -178 -1029 -22 -219 -25 -1016 -5
-1320 47 -714 94 -998 232 -1390 163 -461 278 -666 544 -969 135 -153 273
-274 435 -382 432 -287 958 -435 1706 -479 224 -13 1466 -13 1670 0 1010 66
1631 335 2089 905 224 280 337 507 490 985 149 470 174 603 217 1185 72 993
42 1476 -147 2334 -112 509 -211 782 -373 1022 -38 57 -97 134 -130 170 l-59
66 31 18 c171 99 311 294 386 540 55 179 73 314 75 550 0 116 -3 244 -7 285
l-8 76 -92 43 c-257 121 -479 215 -613 261 -122 41 -479 146 -596 174 l-28 6
0 -207 c0 -606 -77 -876 -280 -978 -159 -81 -444 -67 -705 34 -166 64 -306
171 -363 279 -43 80 -60 163 -72 344 -13 191 5 531 36 689 5 25 4 26 -108 47
-241 47 -316 54 -603 57 -154 1 -298 1 -320 -1z m1405 -2308 c282 -33 525 -93
675 -168 433 -217 685 -841 744 -1843 28 -470 21 -1217 -14 -1625 -72 -815
-279 -1367 -600 -1595 -203 -145 -534 -234 -985 -266 -223 -16 -1646 -16
-1870 0 -563 40 -920 164 -1137 394 -235 249 -381 758 -443 1542 -20 252 -30
897 -20 1275 18 669 71 1051 199 1422 86 247 177 403 309 530 224 214 544 312
1157 352 28 2 453 2 945 1 767 -2 916 -4 1040 -19z"/>
<path d="M3370 4440 l0 -2090 510 0 510 0 0 808 c0 748 1 810 18 842 43 86 98
92 762 88 382 -3 535 -8 562 -17 58 -19 89 -50 99 -101 4 -25 8 -399 9 -832
l0 -788 515 0 515 0 0 2090 0 2090 -515 0 -514 0 -3 -692 c-3 -632 -5 -696
-20 -724 -23 -41 -76 -62 -191 -74 -119 -13 -892 -12 -1022 0 -125 12 -184 39
-202 90 -9 26 -12 216 -12 718 l-1 682 -510 0 -510 0 0 -2090z"/>
</g>
</svg>
